<svg width="1920" height="574" viewBox="0 0 1920 574" fill="none" xmlns="http://www.w3.org/2000/svg">
	<path d="M-142.219 -243.89C214.468 -369.04 77.821 439.329 322.958 588.199C620.405 768.857 707.628 -136.012 856.881 77.6473C1050.82 355.267 1061.18 326.021 1399.56 156.357C1737.93 -13.2881 1980.96 386.67 1980.96 386.67" stroke="white" strokeOpacity="0.15" strokeWidth="2" strokeMiterlimit="10" />
	<path d="M-142.875 -207.405C223.858 -316.15 101.492 417.591 341.721 570.678C643.556 763.023 730.837 -129.966 881.437 82.037C1074.59 354.94 1072.45 356.48 1409.41 183.524C1747.76 9.50819 1979.02 394.41 1979.02 394.41" stroke="white" strokeOpacity="0.15" strokeWidth="1.9405" strokeMiterlimit="10" />
	<path d="M-143.531 -170.919C233.267 -263.26 125.066 396.123 360.484 553.137C666.669 757.381 754.046 -123.921 905.993 86.4262C1098.36 354.631 1083.71 386.919 1419.28 210.709C1757.61 32.3424 1977.09 402.168 1977.09 402.168" stroke="white" strokeOpacity="0.15" strokeWidth="1.8809" strokeMiterlimit="10" />
	<path d="M-144.184 -134.413C242.661 -210.35 148.568 374.906 379.25 535.617C689.766 751.972 777.778 -118.259 930.553 90.7979C1122.78 353.843 1094.97 417.361 1429.14 237.858C1767.47 55.1399 1975.15 409.89 1975.15 409.89" stroke="white" strokeOpacity="0.15" strokeWidth="1.8214" strokeMiterlimit="10" />
	<path d="M-144.836 -97.9274C252.075 -157.46 171.954 353.881 398.017 518.096C712.786 746.754 801.125 -112.329 955.113 95.1876C1146.73 353.4 1106.25 447.82 1439.02 265.025C1777.32 77.9363 1973.23 417.63 1973.23 417.63" stroke="white" strokeOpacity="0.15" strokeWidth="1.7619" strokeMiterlimit="10" />
	<path d="M-145.492 -61.4426C261.465 -104.571 195.239 333.047 416.78 500.555C735.725 741.747 824.469 -106.381 979.669 99.5765C1170.63 352.975 1117.51 478.278 1448.87 292.191C1787.15 100.751 1971.28 425.35 1971.28 425.35" stroke="white" strokeOpacity="0.15" strokeWidth="1.7024" strokeMiterlimit="10" />
	<path d="M-146.168 -24.9566C270.855 -51.6808 218.409 312.388 435.524 483.034C758.549 736.953 847.774 -100.431 1004.22 103.966C1194.51 352.571 1128.77 508.738 1458.74 319.358C1797.01 123.567 1969.36 433.09 1969.36 433.09" stroke="white" strokeOpacity="0.15" strokeWidth="1.6429" strokeMiterlimit="10" />
	<path d="M-146.82 11.5485C280.249 1.22852 241.507 291.902 454.291 465.513C781.3 732.332 871.083 -94.4626 1028.78 108.356C1218.38 352.167 1140.05 539.197 1468.59 346.525C1806.84 146.363 1967.41 440.83 1967.41 440.83" stroke="white" strokeOpacity="0.15" strokeWidth="1.5833" strokeMiterlimit="10" />
	<path d="M-147.473 48.0352C289.662 54.1193 264.508 271.533 473.058 447.993C803.897 727.923 894.353 -88.4739 1053.34 112.747C1242.22 351.802 1151.71 570.332 1478.47 373.693C1817.12 169.892 1965.49 448.571 1965.49 448.571" stroke="white" strokeOpacity="0.15" strokeWidth="1.5238" strokeMiterlimit="10" />
	<path d="M-148.129 84.5215C299.052 107.01 287.409 251.297 491.821 430.453C826.355 723.669 917.62 -82.5048 1077.9 117.118C1266.03 351.417 1163.01 600.791 1488.32 400.841C1826.99 192.708 1963.54 456.292 1963.54 456.292" stroke="white" strokeOpacity="0.15" strokeWidth="1.4643" strokeMiterlimit="10" />
	<path d="M-148.781 121.007C308.466 159.899 310.217 231.177 510.587 412.913C848.682 719.586 940.871 -76.5175 1102.48 121.488C1289.84 351.07 1174.31 631.231 1498.22 427.988C1836.89 215.504 1961.64 464.012 1961.64 464.012" stroke="white" strokeOpacity="0.15" strokeWidth="1.4048" strokeMiterlimit="10" />
	<path d="M-149.438 157.513C317.856 212.791 332.926 211.154 529.35 395.393C870.833 715.718 964.08 -70.4702 1127.02 125.899C1313.59 350.763 1185.54 661.692 1508.07 455.176C1846.72 238.321 1959.7 471.773 1959.7 471.773" stroke="white" strokeOpacity="0.15" strokeWidth="1.3452" strokeMiterlimit="10" />
	<path d="M-150.09 193.997C327.269 265.698 355.542 191.224 548.117 377.87C892.814 711.98 987.312 -64.4464 1151.6 130.286C1337.34 350.453 1196.82 692.13 1517.92 482.341C1856.56 261.115 1957.75 479.51 1957.75 479.51" stroke="white" strokeOpacity="0.15" strokeWidth="1.2857" strokeMiterlimit="10" />
	<path d="M-150.742 230.482C336.683 318.587 378.081 171.354 566.884 360.349C914.602 708.418 1010.49 -58.3817 1176.14 134.656C1361.05 350.144 1208.07 722.531 1527.8 509.508C1866.41 283.892 1955.85 487.25 1955.85 487.25" stroke="white" strokeOpacity="0.15" strokeWidth="1.2262" strokeMiterlimit="10" />
	<path d="M-151.418 266.97C346.053 371.46 400.5 151.563 585.628 342.811C936.213 705.012 1033.64 -52.3148 1200.69 139.048C1384.76 349.896 1218.9 752.357 1537.65 536.677C1875.78 306.017 1953.9 494.973 1953.9 494.973" stroke="white" strokeOpacity="0.15" strokeWidth="1.1667" strokeMiterlimit="10" />
	<path d="M-152.074 303.455C355.463 424.35 422.862 131.808 604.391 325.27C957.613 701.719 1056.77 -46.2311 1225.25 143.418C1408.43 349.626 1230.16 782.797 1547.52 563.824C1885.64 328.813 1951.98 502.693 1951.98 502.693" stroke="white" strokeOpacity="0.15" strokeWidth="1.1071" strokeMiterlimit="10" />
	<path d="M-152.727 339.96C364.857 477.258 445.151 112.13 623.158 307.767C978.824 698.638 1079.9 -40.1093 1249.81 147.826C1432.09 349.432 1241.44 813.255 1557.38 591.009C1895.47 351.647 1950.04 510.452 1950.04 510.452" stroke="white" strokeOpacity="0.15" strokeWidth="1.0476" strokeMiterlimit="10" />
	<path d="M-153.383 376.445C374.266 530.147 467.34 92.4712 641.921 290.226C999.8 695.633 1103 -33.9682 1274.38 152.196C1455.74 349.22 1252.71 843.695 1567.27 618.156C1905.36 374.423 1948.13 518.171 1948.13 518.171" stroke="white" strokeOpacity="0.15" strokeWidth="0.9881" strokeMiterlimit="10" />
	<path d="M-154.039 412.932C383.656 583.039 489.452 72.8529 660.683 272.707C1020.58 692.804 1126.07 -27.8056 1298.94 156.607C1479.35 349.048 1263.97 874.174 1577.12 645.344C1915.2 397.259 1946.18 525.932 1946.18 525.932" stroke="white" strokeOpacity="0.15" strokeWidth="0.9286" strokeMiterlimit="10" />
	<path d="M-154.691 449.419C393.07 635.93 511.51 53.2538 679.45 255.168C1041.14 690.052 1149.13 -21.624 1323.5 160.978C1502.95 348.895 1275.25 904.616 1587 672.493C1925.05 420.057 1944.26 533.654 1944.26 533.654" stroke="white" strokeOpacity="0.15" strokeWidth="0.869" strokeMiterlimit="10" />
	<path d="M-155.348 485.922C402.46 688.837 533.487 33.6712 698.213 237.665C1061.46 687.471 1171.93 -15.1756 1348.06 165.386C1526.29 348.99 1286.51 935.093 1596.85 699.677C1934.89 442.871 1942.31 541.412 1942.31 541.412" stroke="white" strokeOpacity="0.15" strokeWidth="0.8095" strokeMiterlimit="10" />
	<path d="M-156 522.407C411.873 741.727 555.391 14.1085 716.98 220.124C1081.58 684.967 1195.17 -9.15005 1372.62 169.756C1550.06 348.662 1297.77 965.532 1606.7 726.824C1944.72 465.667 1940.37 549.132 1940.37 549.132" stroke="white" strokeOpacity="0.15" strokeWidth="0.75" strokeMiterlimit="10" />
</svg>
